<svg xmlns="http://www.w3.org/2000/svg" width="820" height="346" viewBox="0 0 820 346" role="img">
<rect x="0.5" y="0.5" width="819" height="345" rx="14" fill="#FDF6EC" stroke="#E8D9C5"/>
<text x="28" y="42" font-family="-apple-system,BlinkMacSystemFont,'Segoe UI','PingFang SC','Microsoft YaHei',Helvetica,Arial,sans-serif" font-size="15" font-weight="700" fill="#C86B4A" text-anchor="start" letter-spacing="1">精选项目</text>
<rect x="28" y="62" width="374" height="76" rx="10" fill="#FBF2E4" stroke="#E8D9C5"/>
<text x="44" y="92" font-family="-apple-system,BlinkMacSystemFont,'Segoe UI','PingFang SC','Microsoft YaHei',Helvetica,Arial,sans-serif" font-size="13.5" font-weight="700" fill="#2E4756" text-anchor="start">xuanzhi</text>
<path transform="translate(350.00 82.00) scale(0.50000)" d="M12 17.27L18.18 21l-1.64-7.03L22 9.24l-7.19-.61L12 2 9.19 8.63 2 9.24l5.46 4.73L5.82 21z" fill="#C86B4A"/>
<text x="368" y="92" font-family="-apple-system,BlinkMacSystemFont,'Segoe UI','PingFang SC','Microsoft YaHei',Helvetica,Arial,sans-serif" font-size="11.5" font-weight="700" fill="#C86B4A" text-anchor="start">2</text>
<text x="44" y="120" font-family="-apple-system,BlinkMacSystemFont,'Segoe UI','PingFang SC','Microsoft YaHei',Helvetica,Arial,sans-serif" font-size="11.5" font-weight="400" fill="#9A8C7A" text-anchor="start">宣纸风格 Hugo 博客主题</text>
<rect x="330.5" y="105.5" width="55.5" height="19" rx="9.5" fill="#F1E4D0" stroke="#E8D9C5"/><circle cx="346.5" cy="115.0" r="3.5" fill="#663399"/><text x="354.5" y="118.8" font-family="-apple-system,BlinkMacSystemFont,'Segoe UI','PingFang SC','Microsoft YaHei',Helvetica,Arial,sans-serif" font-size="11" font-weight="400" fill="#2E4756" text-anchor="start">CSS</text>
<rect x="416" y="62" width="374" height="76" rx="10" fill="#FBF2E4" stroke="#E8D9C5"/>
<text x="432" y="92" font-family="-apple-system,BlinkMacSystemFont,'Segoe UI','PingFang SC','Microsoft YaHei',Helvetica,Arial,sans-serif" font-size="13.5" font-weight="700" fill="#2E4756" text-anchor="start">fangclass_check_web</text>
<path transform="translate(738.00 82.00) scale(0.50000)" d="M12 17.27L18.18 21l-1.64-7.03L22 9.24l-7.19-.61L12 2 9.19 8.63 2 9.24l5.46 4.73L5.82 21z" fill="#C86B4A"/>
<text x="756" y="92" font-family="-apple-system,BlinkMacSystemFont,'Segoe UI','PingFang SC','Microsoft YaHei',Helvetica,Arial,sans-serif" font-size="11.5" font-weight="700" fill="#C86B4A" text-anchor="start">2</text>
<text x="432" y="120" font-family="-apple-system,BlinkMacSystemFont,'Segoe UI','PingFang SC','Microsoft YaHei',Helvetica,Arial,sans-serif" font-size="11.5" font-weight="400" fill="#9A8C7A" text-anchor="start">方班研讨厅提问查询工具</text>
<rect x="699.0" y="105.5" width="75.0" height="19" rx="9.5" fill="#F1E4D0" stroke="#E8D9C5"/><circle cx="715.0" cy="115.0" r="3.5" fill="#3572A5"/><text x="723.0" y="118.8" font-family="-apple-system,BlinkMacSystemFont,'Segoe UI','PingFang SC','Microsoft YaHei',Helvetica,Arial,sans-serif" font-size="11" font-weight="400" fill="#2E4756" text-anchor="start">Python</text>
<rect x="28" y="152" width="374" height="76" rx="10" fill="#FBF2E4" stroke="#E8D9C5"/>
<text x="44" y="182" font-family="-apple-system,BlinkMacSystemFont,'Segoe UI','PingFang SC','Microsoft YaHei',Helvetica,Arial,sans-serif" font-size="13.5" font-weight="700" fill="#2E4756" text-anchor="start">emobox</text>
<path transform="translate(350.00 172.00) scale(0.50000)" d="M12 17.27L18.18 21l-1.64-7.03L22 9.24l-7.19-.61L12 2 9.19 8.63 2 9.24l5.46 4.73L5.82 21z" fill="#C86B4A"/>
<text x="368" y="182" font-family="-apple-system,BlinkMacSystemFont,'Segoe UI','PingFang SC','Microsoft YaHei',Helvetica,Arial,sans-serif" font-size="11.5" font-weight="700" fill="#C86B4A" text-anchor="start">0</text>
<text x="44" y="210" font-family="-apple-system,BlinkMacSystemFont,'Segoe UI','PingFang SC','Microsoft YaHei',Helvetica,Arial,sans-serif" font-size="11.5" font-weight="400" fill="#9A8C7A" text-anchor="start">本地表情包管理器</text>
<rect x="285.0" y="195.5" width="101.0" height="19" rx="9.5" fill="#F1E4D0" stroke="#E8D9C5"/><circle cx="301.0" cy="205.0" r="3.5" fill="#3178c6"/><text x="309.0" y="208.8" font-family="-apple-system,BlinkMacSystemFont,'Segoe UI','PingFang SC','Microsoft YaHei',Helvetica,Arial,sans-serif" font-size="11" font-weight="400" fill="#2E4756" text-anchor="start">TypeScript</text>
<rect x="416" y="152" width="374" height="76" rx="10" fill="#FBF2E4" stroke="#E8D9C5"/>
<text x="432" y="182" font-family="-apple-system,BlinkMacSystemFont,'Segoe UI','PingFang SC','Microsoft YaHei',Helvetica,Arial,sans-serif" font-size="13.5" font-weight="700" fill="#2E4756" text-anchor="start">anyswitch</text>
<path transform="translate(738.00 172.00) scale(0.50000)" d="M12 17.27L18.18 21l-1.64-7.03L22 9.24l-7.19-.61L12 2 9.19 8.63 2 9.24l5.46 4.73L5.82 21z" fill="#C86B4A"/>
<text x="756" y="182" font-family="-apple-system,BlinkMacSystemFont,'Segoe UI','PingFang SC','Microsoft YaHei',Helvetica,Arial,sans-serif" font-size="11.5" font-weight="700" fill="#C86B4A" text-anchor="start">0</text>
<text x="432" y="210" font-family="-apple-system,BlinkMacSystemFont,'Segoe UI','PingFang SC','Microsoft YaHei',Helvetica,Arial,sans-serif" font-size="11.5" font-weight="400" fill="#9A8C7A" text-anchor="start">直连 IP 自动写入 hosts</text>
<rect x="725.0" y="195.5" width="49.0" height="19" rx="9.5" fill="#F1E4D0" stroke="#E8D9C5"/><circle cx="741.0" cy="205.0" r="3.5" fill="#00ADD8"/><text x="749.0" y="208.8" font-family="-apple-system,BlinkMacSystemFont,'Segoe UI','PingFang SC','Microsoft YaHei',Helvetica,Arial,sans-serif" font-size="11" font-weight="400" fill="#2E4756" text-anchor="start">Go</text>
<rect x="28" y="242" width="374" height="76" rx="10" fill="#FBF2E4" stroke="#E8D9C5"/>
<text x="44" y="272" font-family="-apple-system,BlinkMacSystemFont,'Segoe UI','PingFang SC','Microsoft YaHei',Helvetica,Arial,sans-serif" font-size="13.5" font-weight="700" fill="#2E4756" text-anchor="start">bowen_music</text>
<path transform="translate(350.00 262.00) scale(0.50000)" d="M12 17.27L18.18 21l-1.64-7.03L22 9.24l-7.19-.61L12 2 9.19 8.63 2 9.24l5.46 4.73L5.82 21z" fill="#C86B4A"/>
<text x="368" y="272" font-family="-apple-system,BlinkMacSystemFont,'Segoe UI','PingFang SC','Microsoft YaHei',Helvetica,Arial,sans-serif" font-size="11.5" font-weight="700" fill="#C86B4A" text-anchor="start">0</text>
<text x="44" y="300" font-family="-apple-system,BlinkMacSystemFont,'Segoe UI','PingFang SC','Microsoft YaHei',Helvetica,Arial,sans-serif" font-size="11.5" font-weight="400" fill="#9A8C7A" text-anchor="start">波点音乐第三方桌面客户端</text>
<rect x="337.0" y="285.5" width="49.0" height="19" rx="9.5" fill="#F1E4D0" stroke="#E8D9C5"/><circle cx="353.0" cy="295.0" r="3.5" fill="#7355dd"/><text x="361.0" y="298.8" font-family="-apple-system,BlinkMacSystemFont,'Segoe UI','PingFang SC','Microsoft YaHei',Helvetica,Arial,sans-serif" font-size="11" font-weight="400" fill="#2E4756" text-anchor="start">C#</text>
<rect x="416" y="242" width="374" height="76" rx="10" fill="#FBF2E4" stroke="#E8D9C5"/>
<text x="432" y="272" font-family="-apple-system,BlinkMacSystemFont,'Segoe UI','PingFang SC','Microsoft YaHei',Helvetica,Arial,sans-serif" font-size="13.5" font-weight="700" fill="#2E4756" text-anchor="start">HYB_farm_helper</text>
<path transform="translate(738.00 262.00) scale(0.50000)" d="M12 17.27L18.18 21l-1.64-7.03L22 9.24l-7.19-.61L12 2 9.19 8.63 2 9.24l5.46 4.73L5.82 21z" fill="#C86B4A"/>
<text x="756" y="272" font-family="-apple-system,BlinkMacSystemFont,'Segoe UI','PingFang SC','Microsoft YaHei',Helvetica,Arial,sans-serif" font-size="11.5" font-weight="700" fill="#C86B4A" text-anchor="start">1</text>
<text x="432" y="300" font-family="-apple-system,BlinkMacSystemFont,'Segoe UI','PingFang SC','Microsoft YaHei',Helvetica,Arial,sans-serif" font-size="11.5" font-weight="400" fill="#9A8C7A" text-anchor="start">黑与白农场油猴助手脚本</text>
<rect x="673.0" y="285.5" width="101.0" height="19" rx="9.5" fill="#F1E4D0" stroke="#E8D9C5"/><circle cx="689.0" cy="295.0" r="3.5" fill="#f1e05a"/><text x="697.0" y="298.8" font-family="-apple-system,BlinkMacSystemFont,'Segoe UI','PingFang SC','Microsoft YaHei',Helvetica,Arial,sans-serif" font-size="11" font-weight="400" fill="#2E4756" text-anchor="start">JavaScript</text>
</svg>