<svg xmlns="http://www.w3.org/2000/svg" width="820" height="194" viewBox="0 0 820 194" role="img"><style>.ink{fill:#22333D}.muted{fill:#6B7B87}.accent{fill:#B85C38}.rule{stroke:#E3DACD;stroke-width:1}@media (prefers-color-scheme:dark){.ink{fill:#D6DEE6}.muted{fill:#8B98A5}.accent{fill:#E0916A}.rule{stroke:#30363D}}</style>
<text x="0" y="36" class="ink" font-family="-apple-system,BlinkMacSystemFont,'Segoe UI','PingFang SC','Microsoft YaHei',Helvetica,Arial,sans-serif" font-size="13" font-weight="700" text-anchor="start">xuanzhi</text>
<rect x="62.2" y="22.0" width="50.4" height="19" rx="9.5" fill="#663399" fill-opacity="0.16"/><circle cx="75.2" cy="31.5" r="3.5" fill="#663399"/><text x="83.15920000000001" y="35.3" class="ink" font-family="-apple-system,BlinkMacSystemFont,'Segoe UI','PingFang SC','Microsoft YaHei',Helvetica,Arial,sans-serif" font-size="10.5" font-weight="400" text-anchor="start">CSS</text>
<path class="accent" transform="translate(128.58 26.00) scale(0.45833)" d="M12 17.27L18.18 21l-1.64-7.03L22 9.24l-7.19-.61L12 2 9.19 8.63 2 9.24l5.46 4.73L5.82 21z"/>
<text x="143.57920000000001" y="36" class="accent" font-family="-apple-system,BlinkMacSystemFont,'Segoe UI','PingFang SC','Microsoft YaHei',Helvetica,Arial,sans-serif" font-size="11.5" font-weight="700" text-anchor="start">2</text>
<text x="0" y="58" class="muted" font-family="-apple-system,BlinkMacSystemFont,'Segoe UI','PingFang SC','Microsoft YaHei',Helvetica,Arial,sans-serif" font-size="11" font-weight="400" text-anchor="start">宣纸风格 Hugo 博客主题</text>
<text x="420" y="36" class="ink" font-family="-apple-system,BlinkMacSystemFont,'Segoe UI','PingFang SC','Microsoft YaHei',Helvetica,Arial,sans-serif" font-size="13" font-weight="700" text-anchor="start">fangclass_check_web</text>
<rect x="570.0" y="22.0" width="64.0" height="19" rx="9.5" fill="#3572A5" fill-opacity="0.16"/><circle cx="583.0" cy="31.5" r="3.5" fill="#3572A5"/><text x="591.0391999999999" y="35.3" class="ink" font-family="-apple-system,BlinkMacSystemFont,'Segoe UI','PingFang SC','Microsoft YaHei',Helvetica,Arial,sans-serif" font-size="10.5" font-weight="400" text-anchor="start">Python</text>
<path class="accent" transform="translate(650.00 26.00) scale(0.45833)" d="M12 17.27L18.18 21l-1.64-7.03L22 9.24l-7.19-.61L12 2 9.19 8.63 2 9.24l5.46 4.73L5.82 21z"/>
<text x="665.0042" y="36" class="accent" font-family="-apple-system,BlinkMacSystemFont,'Segoe UI','PingFang SC','Microsoft YaHei',Helvetica,Arial,sans-serif" font-size="11.5" font-weight="700" text-anchor="start">2</text>
<text x="420" y="58" class="muted" font-family="-apple-system,BlinkMacSystemFont,'Segoe UI','PingFang SC','Microsoft YaHei',Helvetica,Arial,sans-serif" font-size="11" font-weight="400" text-anchor="start">方班研讨厅提问查询工具</text>
<line class="rule" x1="0" y1="72" x2="820" y2="72"/>
<text x="0" y="94" class="ink" font-family="-apple-system,BlinkMacSystemFont,'Segoe UI','PingFang SC','Microsoft YaHei',Helvetica,Arial,sans-serif" font-size="13" font-weight="700" text-anchor="start">emobox</text>
<rect x="55.0" y="80.0" width="87.8" height="19" rx="9.5" fill="#3178c6" fill-opacity="0.16"/><circle cx="68.0" cy="89.5" r="3.5" fill="#3178c6"/><text x="75.99360000000001" y="93.3" class="ink" font-family="-apple-system,BlinkMacSystemFont,'Segoe UI','PingFang SC','Microsoft YaHei',Helvetica,Arial,sans-serif" font-size="10.5" font-weight="400" text-anchor="start">TypeScript</text>
<path class="accent" transform="translate(158.79 84.00) scale(0.45833)" d="M12 17.27L18.18 21l-1.64-7.03L22 9.24l-7.19-.61L12 2 9.19 8.63 2 9.24l5.46 4.73L5.82 21z"/>
<text x="173.79360000000003" y="94" class="accent" font-family="-apple-system,BlinkMacSystemFont,'Segoe UI','PingFang SC','Microsoft YaHei',Helvetica,Arial,sans-serif" font-size="11.5" font-weight="700" text-anchor="start">0</text>
<text x="0" y="116" class="muted" font-family="-apple-system,BlinkMacSystemFont,'Segoe UI','PingFang SC','Microsoft YaHei',Helvetica,Arial,sans-serif" font-size="11" font-weight="400" text-anchor="start">本地表情包管理器</text>
<text x="420" y="94" class="ink" font-family="-apple-system,BlinkMacSystemFont,'Segoe UI','PingFang SC','Microsoft YaHei',Helvetica,Arial,sans-serif" font-size="13" font-weight="700" text-anchor="start">anyswitch</text>
<rect x="496.5" y="80.0" width="41.7" height="19" rx="9.5" fill="#00ADD8" fill-opacity="0.16"/><circle cx="509.5" cy="89.5" r="3.5" fill="#00ADD8"/><text x="517.4904" y="93.3" class="ink" font-family="-apple-system,BlinkMacSystemFont,'Segoe UI','PingFang SC','Microsoft YaHei',Helvetica,Arial,sans-serif" font-size="10.5" font-weight="400" text-anchor="start">Go</text>
<path class="accent" transform="translate(554.20 84.00) scale(0.45833)" d="M12 17.27L18.18 21l-1.64-7.03L22 9.24l-7.19-.61L12 2 9.19 8.63 2 9.24l5.46 4.73L5.82 21z"/>
<text x="569.1954000000001" y="94" class="accent" font-family="-apple-system,BlinkMacSystemFont,'Segoe UI','PingFang SC','Microsoft YaHei',Helvetica,Arial,sans-serif" font-size="11.5" font-weight="700" text-anchor="start">0</text>
<text x="420" y="116" class="muted" font-family="-apple-system,BlinkMacSystemFont,'Segoe UI','PingFang SC','Microsoft YaHei',Helvetica,Arial,sans-serif" font-size="11" font-weight="400" text-anchor="start">直连 IP 自动写入 hosts</text>
<line class="rule" x1="0" y1="130" x2="820" y2="130"/>
<text x="0" y="152" class="ink" font-family="-apple-system,BlinkMacSystemFont,'Segoe UI','PingFang SC','Microsoft YaHei',Helvetica,Arial,sans-serif" font-size="13" font-weight="700" text-anchor="start">bowen_music</text>
<rect x="91.8" y="138.0" width="42.4" height="19" rx="9.5" fill="#7355dd" fill-opacity="0.16"/><circle cx="104.8" cy="147.5" r="3.5" fill="#7355dd"/><text x="112.76800000000001" y="151.3" class="ink" font-family="-apple-system,BlinkMacSystemFont,'Segoe UI','PingFang SC','Microsoft YaHei',Helvetica,Arial,sans-serif" font-size="10.5" font-weight="400" text-anchor="start">C#</text>
<path class="accent" transform="translate(150.21 142.00) scale(0.45833)" d="M12 17.27L18.18 21l-1.64-7.03L22 9.24l-7.19-.61L12 2 9.19 8.63 2 9.24l5.46 4.73L5.82 21z"/>
<text x="165.20800000000003" y="152" class="accent" font-family="-apple-system,BlinkMacSystemFont,'Segoe UI','PingFang SC','Microsoft YaHei',Helvetica,Arial,sans-serif" font-size="11.5" font-weight="700" text-anchor="start">0</text>
<text x="0" y="174" class="muted" font-family="-apple-system,BlinkMacSystemFont,'Segoe UI','PingFang SC','Microsoft YaHei',Helvetica,Arial,sans-serif" font-size="11" font-weight="400" text-anchor="start">波点音乐第三方桌面客户端</text>
<text x="420" y="152" class="ink" font-family="-apple-system,BlinkMacSystemFont,'Segoe UI','PingFang SC','Microsoft YaHei',Helvetica,Arial,sans-serif" font-size="13" font-weight="700" text-anchor="start">HYB_farm_helper</text>
<rect x="547.5" y="138.0" width="87.8" height="19" rx="9.5" fill="#f1e05a" fill-opacity="0.16"/><circle cx="560.5" cy="147.5" r="3.5" fill="#f1e05a"/><text x="568.4608000000001" y="151.3" class="ink" font-family="-apple-system,BlinkMacSystemFont,'Segoe UI','PingFang SC','Microsoft YaHei',Helvetica,Arial,sans-serif" font-size="10.5" font-weight="400" text-anchor="start">JavaScript</text>
<path class="accent" transform="translate(651.26 142.00) scale(0.45833)" d="M12 17.27L18.18 21l-1.64-7.03L22 9.24l-7.19-.61L12 2 9.19 8.63 2 9.24l5.46 4.73L5.82 21z"/>
<text x="666.2608" y="152" class="accent" font-family="-apple-system,BlinkMacSystemFont,'Segoe UI','PingFang SC','Microsoft YaHei',Helvetica,Arial,sans-serif" font-size="11.5" font-weight="700" text-anchor="start">1</text>
<text x="420" y="174" class="muted" font-family="-apple-system,BlinkMacSystemFont,'Segoe UI','PingFang SC','Microsoft YaHei',Helvetica,Arial,sans-serif" font-size="11" font-weight="400" text-anchor="start">黑与白农场油猴助手脚本</text>
</svg>